<?xml version="1.0" encoding="utf-8"?><svg version="1.1" id="z" xmlns="http://www.w3.org/2000/svg" xmlns:xlink="http://www.w3.org/1999/xlink" x="0px" y="0px" viewBox="-32 32.3 531 531" style="enable-background:new -32 32.3 531 531;" xml:space="preserve"><g transform="translate(0.000000,531.000000) scale(0.100000,-0.100000)"><path d="M2000,4972.2c-137-19-279-46-285-54c-2-4,19-34,48-67s66-78,83-99l32-40l-134-33l-134-33l-63,53c-34,30-82,69-106,88l-44,34l-51-18c-62-22-284-128-310-148c-17-13-11-19,82-81c56-37,104-71,107-76s-25-26-62-47c-38-20-81-46-96-57l-28-19l-97,45c-53,24-114,51-134,58l-36,12l-97-77c-141-114-223-193-205-199c8-3,66-22,128-43l113-38l-88-87l-88-88l-110,19c-143,25-163,25-186-2c-32-37-212-308-208-313c2-2,60-8,127-13c68-6,125-12,128-14c2-3-18-43-46-89c-27-46-50-87-50-90s-42-9-92-12c-51-4-115-9-142-13c-47-7-49-9-72-58c-29-65-119-334-113-340c2-2,51,7,109,20c130,29,155,31,145,7c-4-10-21-73-38-140l-31-122l-45-17c-138-51-209-86-216-107c-9-31-19-397-11-397c3,0,23,11,44,24c40,25,178,96,187,96c3,0,5-48,5-107v-108l-108-80c-124-93-123-91-97-232c18-95,54-253,62-266c3-4,48,33,100,83s96,90,98,88c1-2,14-44,29-94c14-50,28-98,31-105c3-9-26-54-71-109c-42-52-80-104-86-115c-10-23,38-144,112-278c67-124,56-123,134-3c37,58,71,106,74,106c9,0,128-200,125-209c-1-3-25-61-53-129l-51-123l55-68c63-78,215-241,225-241c4,0,15,33,25,73c10,39,27,96,38,125l20,53l71-68l72-68l-17-100c-10-55-17-119-18-142c0-39,3-43,67-91c78-58,263-175,268-170c2,1,7,59,12,128c4,69,12,124,16,124c4-1,52-26,106-55l98-54l17-140c10-77,18-140,19-141s59-22,128-47c128-47,256-83,264-75c2,2-3,31-11,63c-9,33-22,90-28,126l-13,66l98-26c55-14,99-30,99-36c1-5,22-64,49-130l48-120l44-7c54-9,369-23,369-16c0,2-25,53-55,113c-30,59-55,112-55,116c0,5,57,9,128,9c121,0,128-1,141-23c13-20,98-134,138-184l18-22l114,20c131,22,291,58,291,66c0,2-35,42-77,89c-42,46-80,90-84,97c-6,10,18,21,94,43l103,29l69-58c39-33,89-72,112-88l42-29l93,41c51,22,135,63,187,91c87,47,93,52,75,65c-10,7-61,41-113,74l-94,60l89,53l89,54l40-20c71-37,196-88,213-88c19,0,153,105,256,202l70,64l-105,33c-167,53-162,44-76,129l73,72l118-20c65-11,128-20,141-20c26,0,77,62,185,225c60,92,69,110,54,112c-11,2-68,7-127,12c-60,5-111,12-114,14c-2,3,17,41,43,85l48,79l105,7c185,11,171,4,215,109c43,103,108,288,102,294c-2,2-49-5-104-17c-105-21-152-25-152-12c0,4,9,34,19,67s24,79,30,102c11,41,12,42,94,69c45,15,105,37,133,49l51,22l12,84c7,46,15,139,18,206l6,123l-116-55c-63-30-118-55-121-55s-6,55-6,123v122l38,24c20,13,72,48,115,79c72,51,77,58,77,91c0,60-54,366-67,380c-2,3-22-13-46-35c-89-85-157-137-161-123c-2,8-13,52-25,98l-22,85l39,40c56,59,142,165,142,176c0,30-157,380-170,380c-4,0-12-10-17-22c-6-13-39-62-73-111l-63-88l-44,82l-43,82l60,120c33,66,60,125,60,132c0,27-232,320-253,320c-5,0-24-40-41-90c-18-49-39-103-47-118l-15-28l-78,86l-78,86l26,137l27,137l-43,38c-84,74-285,215-292,205c-1-2-8-59-14-127c-7-69-14-126-16-128c-1-2-36,19-77,45c-41,27-88,56-105,65c-30,16-31,18-38,104c-4,48-9,114-12,145l-6,57l-122,49c-140,57-255,96-262,89c-3-3,2-38,10-78c17-85,30-179,25-179c-31,3-226,72-231,82c-3,7-23,61-43,120c-20,58-42,113-48,121c-14,17-231,47-344,47h-72l55-114c30-63,54-117,54-120s-51-6-114-6h-113l-36,58c-59,94-126,182-140,181C2101,4985.2,2052,4979.2,2000,4972.2z M2500,3992.2c111-7,291-48,410-92c487-181,857-563,1021-1053c109-325,109-705,0-1030c-216-647-801-1103-1470-1148c-770-52-1467,415-1712,1148c-108,324-108,706,0,1030c189,565,654,985,1235,1115c119,26,302,45,386,39C2395,3999.2,2453,3995.2,2500,3992.2z"/><path d="M2100,3743.2c-588-104-1041-542-1167-1129c-25-117-25-457,0-574c95-441,378-806,772-999c121-58,224-94,348-121c117-25,457-25,574,0c441,95,806,377,999,772c110,227,139,357,139,635s-29,408-139,635c-191,390-552,672-989,771C2539,3755.2,2204,3761.2,2100,3743.2z M2560,3591.2c459-78,850-416,1000-864c82-243,82-557,0-800c-111-332-350-602-665-755c-186-90-346-126-555-126c-710,0-1281,570-1281,1281c0,496,278,938,726,1155C2034,3602.2,2287,3638.2,2560,3591.2z"/><path d="M2140,3232.2c-350-75-632-358-704-708c-21-99-21-285,0-384c67-327,320-599,644-693c106-31,325-39,440-16c358,73,641,353,714,709c34,161,16,382-42,526c-117,293-364,503-665,565C2433,3251.2,2231,3251.2,2140,3232.2z"/></g></svg>